<svg width="90.123535" height="72.000000" viewBox="0 0 90.1235 72" fill="none" xmlns="http://www.w3.org/2000/svg" xmlns:xlink="http://www.w3.org/1999/xlink">
	<desc>
			Created with Pixso.
	</desc>
	<defs/>
	<path id="Vector" d="M45.63 24.98C43.37 21.06 50.45 12.75 61.43 6.4C72.42 0.06 83.16 -1.91 85.42 2.01C86.67 4.18 87.92 6.35 89.18 8.53C91.44 12.44 84.37 20.75 73.38 27.1C62.39 33.44 51.66 35.41 49.39 31.5C48.14 29.32 46.89 27.15 45.63 24.98Z" fill="#FE9923" fill-opacity="1.000000" fill-rule="evenodd"/>
	<path id="Vector" d="M61.43 6.4C72.42 0.06 83.16 -1.91 85.42 2.01C87.68 5.92 80.61 14.24 69.62 20.59C58.63 26.93 47.9 28.9 45.63 24.98C43.37 21.06 50.45 12.75 61.43 6.4Z" fill="#FECD3D" fill-opacity="1.000000" fill-rule="evenodd"/>
	<path id="Vector" d="M63.35 9.72C72.09 4.67 80.15 2.27 81.35 4.36C82.56 6.44 76.45 12.22 67.71 17.27C58.97 22.32 50.9 24.72 49.7 22.63C48.5 20.54 54.61 14.76 63.35 9.72Z" fill="#FEA832" fill-opacity="1.000000" fill-rule="evenodd"/>
	<path id="Vector" d="M84.6 13.01L86.6 16.48C87.08 15.89 87.51 15.32 87.88 14.75L86.3 12.02L84.6 13.01ZM82.89 20.31C82.4 20.74 81.9 21.18 81.37 21.61L79.46 18.3L81.16 17.33L82.89 20.31ZM77.22 24.69C76.69 25.06 76.14 25.42 75.58 25.77L73.76 22.62L75.46 21.64L77.22 24.69ZM71.13 28.34C70.54 28.65 69.96 28.94 69.38 29.23L67.61 26.17L69.31 25.19L71.13 28.34ZM64.63 31.28C63.99 31.52 63.37 31.74 62.75 31.94L61.02 28.95L62.73 27.97L64.63 31.28ZM57.57 33.24C56.83 33.36 56.11 33.44 55.44 33.48L53.87 30.75L55.57 29.77L57.57 33.24Z" fill="#C85929" fill-opacity="1.000000" fill-rule="nonzero"/>
	<path id="Vector" d="M43.96 41.99C46.22 38.07 39.15 29.75 28.16 23.41C17.18 17.07 6.44 15.1 4.18 19.02C2.92 21.19 1.67 23.36 0.42 25.53C-1.85 29.44 5.23 37.76 16.22 44.1C27.2 50.45 37.94 52.41 40.2 48.5C41.46 46.33 42.71 44.16 43.96 41.99Z" fill="#FE9923" fill-opacity="1.000000" fill-rule="evenodd"/>
	<path id="Vector" d="M28.16 23.41C17.18 17.07 6.44 15.1 4.18 19.02C1.92 22.93 8.99 31.25 19.98 37.59C30.96 43.94 41.71 45.9 43.96 41.99C46.22 38.07 39.15 29.75 28.16 23.41Z" fill="#FECD3D" fill-opacity="1.000000" fill-rule="evenodd"/>
	<path id="Vector" d="M26.25 26.73C17.51 21.68 9.45 19.28 8.24 21.37C7.04 23.45 13.15 29.23 21.89 34.28C30.63 39.32 38.69 41.72 39.9 39.64C41.1 37.55 34.99 31.77 26.25 26.73Z" fill="#FEA832" fill-opacity="1.000000" fill-rule="evenodd"/>
	<path id="Vector" d="M5 30.01L3 33.48C2.52 32.9 2.09 32.32 1.72 31.76L3.3 29.03L5 30.01ZM6.71 37.32C7.19 37.75 7.7 38.19 8.22 38.62L10.13 35.31L8.43 34.33L6.71 37.32ZM12.37 41.7C12.91 42.06 13.46 42.42 14.02 42.78L15.84 39.62L14.14 38.65L12.37 41.7ZM18.46 45.35C19.05 45.65 19.64 45.95 20.22 46.23L21.99 43.18L20.28 42.19L18.46 45.35ZM24.97 48.28C25.6 48.52 26.23 48.74 26.85 48.94L28.57 45.96L26.87 44.98L24.97 48.28ZM32.03 50.25C32.77 50.36 33.48 50.45 34.15 50.49L35.73 47.76L34.03 46.77L32.03 50.25Z" fill="#C85929" fill-opacity="1.000000" fill-rule="nonzero"/>
	<path id="Vector" d="M42.38 63.46C40.12 59.55 47.19 51.24 58.18 44.89C69.16 38.55 79.9 36.58 82.16 40.49C83.42 42.67 84.67 44.84 85.92 47.01C88.18 50.93 81.11 59.24 70.13 65.59C59.14 71.93 48.4 73.9 46.14 69.98C44.89 67.81 43.63 65.64 42.38 63.46Z" fill="#FE9923" fill-opacity="1.000000" fill-rule="evenodd"/>
	<path id="Vector" d="M58.18 44.89C69.16 38.55 79.9 36.58 82.16 40.49C84.42 44.41 77.35 52.73 66.36 59.07C55.38 65.41 44.64 67.38 42.38 63.46C40.12 59.55 47.19 51.24 58.18 44.89Z" fill="#FECD3D" fill-opacity="1.000000" fill-rule="evenodd"/>
	<path id="Vector" d="M60.09 48.2C68.83 43.16 76.89 40.76 78.09 42.84C79.3 44.93 73.19 50.71 64.45 55.76C55.71 60.8 47.65 63.2 46.44 61.12C45.24 59.03 51.35 53.25 60.09 48.2Z" fill="#FEA832" fill-opacity="1.000000" fill-rule="evenodd"/>
	<path id="Vector" d="M81.34 51.5L83.35 54.96C83.82 54.38 84.25 53.8 84.62 53.24L83.04 50.51L81.34 51.5ZM79.63 58.8C79.15 59.23 78.64 59.66 78.12 60.09L76.21 56.79L77.91 55.82L79.63 58.8ZM73.97 63.18C73.43 63.55 72.88 63.91 72.32 64.26L70.5 61.1L72.21 60.13L73.97 63.18ZM67.88 66.82C67.29 67.13 66.7 67.43 66.12 67.71L64.36 64.65L66.06 63.67L67.88 66.82ZM61.38 69.76C60.74 70 60.11 70.22 59.49 70.43L57.77 67.43L59.47 66.46L61.38 69.76ZM54.32 71.72C53.57 71.85 52.86 71.92 52.19 71.96L50.62 69.24L52.31 68.25L54.32 71.72Z" fill="#C85929" fill-opacity="1.000000" fill-rule="nonzero"/>
	<path id="Vector" d="M37.97 9.19L37.97 12.11L40.89 12.11L40.89 14.64L37.97 14.64L37.97 17.56L35.44 17.56L35.44 14.64L32.51 14.64L32.51 12.11L35.44 12.11L35.44 9.19L37.97 9.19Z" fill="#FEA832" fill-opacity="1.000000" fill-rule="nonzero"/>
	<path id="Vector" d="M28.94 56.01L28.94 58.92L31.87 58.92L31.87 61.46L28.94 61.46L28.94 64.38L26.41 64.38L26.41 61.46L23.49 61.46L23.49 58.92L26.41 58.92L26.41 56.01L28.94 56.01Z" fill="#FEA832" fill-opacity="1.000000" fill-rule="nonzero"/>
	<path id="Vector" d="M87.19 27.38L87.19 30.3L90.12 30.3L90.12 32.83L87.19 32.83L87.19 35.75L84.66 35.75L84.66 32.83L81.74 32.83L81.74 30.3L84.66 30.3L84.66 27.38L87.19 27.38Z" fill="#FEA832" fill-opacity="1.000000" fill-rule="nonzero"/>
</svg>
