<svg width="23.133789" height="23.133789" viewBox="0 0 23.1338 23.1338" fill="none" xmlns="http://www.w3.org/2000/svg" xmlns:xlink="http://www.w3.org/1999/xlink">
	<desc>
			Created with Pixso.
	</desc>
	<defs/>
	<mask id="mask61_222" mask-type="alpha" maskUnits="userSpaceOnUse" x="0.000000" y="0.000000" width="23.133789" height="23.133789">
		<path id="svgIDa" d="M0 0L23.13 0L23.13 23.13L0 23.13L0 0Z" fill="#000000" fill-opacity="1.000000" fill-rule="nonzero"/>
	</mask>
	<g mask="url(#mask61_222)">
		<path id="Vector" d="M0 11.63C0 17.38 4.17 22.16 9.63 23.13L9.63 14.77L6.74 14.77L6.74 11.56L9.63 11.56L9.63 8.99C9.63 6.1 11.5 4.49 14.13 4.49C14.97 4.49 15.87 4.62 16.7 4.75L16.7 7.71L15.23 7.71C13.81 7.71 13.49 8.41 13.49 9.31L13.49 11.56L16.57 11.56L16.06 14.77L13.49 14.77L13.49 23.13C18.95 22.16 23.13 17.38 23.13 11.63C23.13 5.23 17.92 0 11.56 0C5.2 0 0 5.23 0 11.63Z" fill="#FFFFF5" fill-opacity="1.000000" fill-rule="evenodd"/>
	</g>
</svg>
