<svg width="22.226562" height="22.226562" viewBox="0 0 22.2266 22.2266" fill="none" xmlns="http://www.w3.org/2000/svg" xmlns:xlink="http://www.w3.org/1999/xlink">
	<desc>
			Created with Pixso.
	</desc>
	<defs/>
	<path id="Vector" d="M6.53 0.06C7.71 0.01 8.09 0 11.11 0C14.13 0 14.5 0.01 15.69 0.06C16.87 0.12 17.68 0.3 18.39 0.58C19.13 0.86 19.8 1.3 20.36 1.86C20.92 2.42 21.36 3.09 21.64 3.83C21.91 4.54 22.1 5.34 22.16 6.53C22.21 7.71 22.22 8.09 22.22 11.11C22.22 14.13 22.21 14.5 22.16 15.69C22.1 16.87 21.91 17.68 21.64 18.39C21.36 19.13 20.92 19.8 20.36 20.36C19.8 20.92 19.13 21.36 18.39 21.64C17.68 21.91 16.87 22.1 15.69 22.16C14.5 22.21 14.13 22.22 11.11 22.22C8.09 22.22 7.71 22.21 6.53 22.16C5.34 22.1 4.54 21.91 3.83 21.64C3.09 21.36 2.42 20.92 1.86 20.36C1.29 19.8 0.86 19.13 0.58 18.39C0.3 17.68 0.12 16.87 0.06 15.69C0.01 14.5 0 14.13 0 11.11C0 8.09 0.01 7.71 0.06 6.53C0.12 5.34 0.3 4.54 0.58 3.83C0.86 3.09 1.3 2.41 1.86 1.86C2.42 1.29 3.09 0.86 3.83 0.58C4.54 0.3 5.34 0.12 6.53 0.06L6.53 0.06ZM15.6 2.06C14.43 2.01 14.08 2 11.11 2C8.14 2 7.79 2.01 6.62 2.06C5.53 2.11 4.95 2.29 4.55 2.45C4.04 2.65 3.66 2.89 3.28 3.28C2.91 3.63 2.62 4.07 2.45 4.55C2.29 4.95 2.11 5.53 2.06 6.62C2.01 7.79 2 8.14 2 11.11C2 14.08 2.01 14.43 2.06 15.6C2.11 16.68 2.29 17.27 2.45 17.66C2.62 18.14 2.91 18.58 3.28 18.94C3.63 19.31 4.07 19.59 4.55 19.77C4.95 19.92 5.53 20.1 6.62 20.15C7.79 20.21 8.14 20.22 11.11 20.22C14.08 20.22 14.43 20.21 15.6 20.15C16.68 20.1 17.27 19.92 17.66 19.77C18.18 19.57 18.55 19.33 18.94 18.94C19.31 18.58 19.59 18.14 19.77 17.66C19.92 17.27 20.1 16.68 20.15 15.6C20.21 14.43 20.22 14.08 20.22 11.11C20.22 8.14 20.21 7.79 20.15 6.62C20.1 5.53 19.92 4.95 19.77 4.55C19.57 4.04 19.33 3.66 18.94 3.28C18.58 2.91 18.15 2.62 17.66 2.45C17.27 2.29 16.68 2.11 15.6 2.06ZM9.69 14.53C10.48 14.86 11.36 14.91 12.19 14.66C13.01 14.41 13.72 13.89 14.2 13.17C14.67 12.46 14.89 11.6 14.8 10.75C14.72 9.89 14.34 9.09 13.73 8.49C13.34 8.1 12.87 7.8 12.36 7.62C11.84 7.43 11.29 7.37 10.75 7.42C10.2 7.47 9.67 7.65 9.2 7.93C8.73 8.21 8.33 8.59 8.03 9.05C7.72 9.5 7.52 10.02 7.44 10.56C7.36 11.11 7.4 11.66 7.56 12.18C7.72 12.71 7.99 13.19 8.36 13.6C8.73 14 9.18 14.32 9.69 14.53ZM7.07 7.07C7.6 6.54 8.23 6.12 8.92 5.83C9.62 5.54 10.36 5.4 11.11 5.4C11.86 5.4 12.6 5.54 13.29 5.83C13.99 6.12 14.62 6.54 15.15 7.07C15.68 7.6 16.1 8.23 16.39 8.92C16.67 9.62 16.82 10.36 16.82 11.11C16.82 11.86 16.67 12.6 16.39 13.29C16.1 13.99 15.68 14.62 15.15 15.15C14.08 16.22 12.62 16.82 11.11 16.82C9.59 16.82 8.14 16.22 7.07 15.15C6 14.08 5.4 12.62 5.4 11.11C5.4 9.59 6 8.14 7.07 7.07ZM18.09 6.25C18.22 6.12 18.32 5.97 18.4 5.81C18.47 5.64 18.51 5.46 18.51 5.28C18.51 5.1 18.48 4.92 18.41 4.76C18.34 4.59 18.24 4.44 18.12 4.31C17.99 4.18 17.84 4.08 17.67 4.01C17.5 3.94 17.32 3.91 17.14 3.91C16.96 3.92 16.78 3.95 16.62 4.03C16.45 4.1 16.3 4.21 16.18 4.34C15.94 4.59 15.8 4.93 15.81 5.28C15.81 5.64 15.96 5.97 16.21 6.22C16.45 6.47 16.79 6.61 17.14 6.61C17.49 6.62 17.83 6.49 18.09 6.25Z" fill="#FFFFF5" fill-opacity="1.000000" fill-rule="evenodd"/>
</svg>
