<svg width="130.360840" height="130.500061" viewBox="0 0 130.361 130.5" fill="none" xmlns="http://www.w3.org/2000/svg" xmlns:xlink="http://www.w3.org/1999/xlink">
	<desc>
			Created with Pixso.
	</desc>
	<defs/>
	<path id="Vector" d="M67.89 0C66.39 0 65.18 1.21 65.18 2.71L65.18 62.46C65.18 63.96 66.39 65.18 67.89 65.18L127.64 65.18C129.14 65.18 130.36 63.96 130.36 62.46C130.32 27.98 102.37 0.03 67.89 0Z" fill="#FFC107" fill-opacity="1.000000" fill-rule="nonzero"/>
	<path id="Vector" d="M97.2 115.11L59.74 66.96L59.74 8.14C59.74 6.64 58.53 5.43 57.03 5.43C25.58 5.43 0 33.45 0 67.89C0.03 102.37 27.98 130.32 62.46 130.36C74.98 131.33 87.36 127.19 96.77 118.87C97.91 117.94 98.1 116.27 97.2 115.11Z" fill="#2196F3" fill-opacity="1.000000" fill-rule="nonzero"/>
	<path id="Vector" d="M127.64 70.61L73.32 70.61C71.82 70.61 70.61 71.82 70.61 73.32C70.61 73.94 70.82 74.55 71.21 75.03L106.52 118.74C106.99 119.32 107.69 119.69 108.44 119.74L108.63 119.74C109.32 119.74 109.98 119.48 110.48 119.01C123.13 107.18 130.33 90.64 130.36 73.32C130.36 71.82 129.14 70.61 127.64 70.61Z" fill="#4CAF50" fill-opacity="1.000000" fill-rule="nonzero"/>
</svg>
