<svg width="77.000000" height="77.000000" viewBox="0 0 77 77" fill="none" xmlns="http://www.w3.org/2000/svg" xmlns:xlink="http://www.w3.org/1999/xlink">
	<desc>
			Created with Pixso.
	</desc>
	<defs>
		<clipPath id="clip25_104">
			<rect id="contract (1) 1" width="77.000000" height="77.000000" fill="white" fill-opacity="0"/>
		</clipPath>
	</defs>
	<rect id="contract (1) 1" width="77.000000" height="77.000000" fill="#FFFFFF" fill-opacity="0"/>
	<g clip-path="url(#clip25_104)">
		<path id="Vector" d="M35.44 5.88L5.21 13.2C4.55 13.36 3.93 13.64 3.39 14.04C2.84 14.44 2.38 14.94 2.03 15.52C1.68 16.09 1.44 16.73 1.34 17.4C1.23 18.06 1.26 18.74 1.42 19.4L14.1 71.78C14.26 72.44 14.54 73.06 14.94 73.6C15.34 74.15 15.84 74.61 16.41 74.96C16.99 75.31 17.63 75.55 18.29 75.65C18.96 75.76 19.64 75.73 20.3 75.57L59.6 66.05L35.44 5.88Z" fill="#F3D55B" fill-opacity="1.000000" fill-rule="nonzero"/>
		<path id="Vector" d="M8.57 22.91C8.25 22.91 7.95 22.8 7.72 22.59C7.48 22.38 7.33 22.09 7.3 21.78C7.26 21.47 7.34 21.16 7.52 20.9C7.69 20.64 7.96 20.46 8.26 20.38L10.76 19.78C10.92 19.73 11.1 19.72 11.27 19.74C11.44 19.77 11.6 19.82 11.75 19.91C11.9 20 12.03 20.11 12.13 20.25C12.23 20.39 12.31 20.55 12.35 20.71C12.39 20.88 12.39 21.06 12.37 21.22C12.34 21.39 12.28 21.56 12.18 21.7C12.09 21.85 11.97 21.97 11.83 22.07C11.69 22.17 11.53 22.24 11.36 22.27L8.87 22.88C8.77 22.9 8.67 22.91 8.57 22.91Z" fill="#3F5C6C" fill-opacity="1.000000" fill-rule="nonzero"/>
		<path id="Vector" d="M17.29 20.8C16.98 20.8 16.68 20.68 16.44 20.47C16.21 20.26 16.06 19.98 16.02 19.67C15.98 19.35 16.06 19.04 16.24 18.78C16.42 18.52 16.69 18.34 16.99 18.27L26.64 15.93C26.81 15.89 26.98 15.87 27.15 15.9C27.32 15.92 27.49 15.98 27.64 16.06C27.78 16.15 27.91 16.27 28.02 16.4C28.12 16.54 28.19 16.7 28.23 16.87C28.27 17.03 28.28 17.21 28.25 17.38C28.22 17.55 28.16 17.71 28.07 17.85C27.98 18 27.86 18.13 27.72 18.22C27.57 18.32 27.41 18.39 27.25 18.42L17.6 20.76C17.5 20.79 17.4 20.8 17.29 20.8Z" fill="#3F5C6C" fill-opacity="1.000000" fill-rule="nonzero"/>
		<path id="Vector" d="M10.07 29.15C9.76 29.15 9.46 29.03 9.22 28.83C8.99 28.62 8.84 28.33 8.8 28.02C8.76 27.71 8.84 27.39 9.02 27.13C9.2 26.88 9.47 26.69 9.77 26.62L12.27 26.01C12.6 25.93 12.95 25.99 13.24 26.17C13.53 26.34 13.74 26.63 13.82 26.96C13.9 27.29 13.84 27.64 13.67 27.93C13.49 28.22 13.2 28.43 12.87 28.51L10.38 29.11C10.28 29.14 10.18 29.15 10.07 29.15Z" fill="#3F5C6C" fill-opacity="1.000000" fill-rule="nonzero"/>
		<path id="Vector" d="M18.81 27.03C18.49 27.03 18.19 26.92 17.96 26.71C17.73 26.5 17.58 26.21 17.54 25.9C17.5 25.59 17.58 25.28 17.76 25.02C17.94 24.76 18.2 24.58 18.51 24.51L26.64 22.54C26.97 22.47 27.32 22.53 27.6 22.71C27.88 22.89 28.09 23.17 28.17 23.49C28.24 23.82 28.19 24.16 28.02 24.45C27.85 24.74 27.57 24.95 27.25 25.04L19.12 27C19.02 27.02 18.91 27.04 18.81 27.03Z" fill="#3F5C6C" fill-opacity="1.000000" fill-rule="nonzero"/>
		<path id="Vector" d="M11.58 35.39C11.27 35.39 10.97 35.27 10.73 35.06C10.5 34.85 10.35 34.56 10.32 34.25C10.28 33.94 10.36 33.63 10.54 33.37C10.72 33.11 10.98 32.93 11.29 32.86L13.78 32.25C13.95 32.21 14.12 32.2 14.29 32.22C14.46 32.24 14.62 32.3 14.77 32.39C14.92 32.47 15.05 32.59 15.15 32.73C15.25 32.87 15.32 33.02 15.37 33.19C15.41 33.36 15.41 33.53 15.38 33.7C15.36 33.87 15.3 34.03 15.2 34.17C15.11 34.32 14.99 34.44 14.85 34.54C14.71 34.64 14.55 34.71 14.39 34.75L11.89 35.35C11.79 35.38 11.69 35.39 11.58 35.39Z" fill="#3F5C6C" fill-opacity="1.000000" fill-rule="nonzero"/>
		<path id="Vector" d="M20.31 33.27C20 33.27 19.69 33.16 19.46 32.95C19.22 32.74 19.07 32.45 19.04 32.14C19 31.83 19.08 31.51 19.26 31.26C19.44 31 19.7 30.81 20.01 30.74L26.64 29.14C26.81 29.09 26.98 29.08 27.15 29.1C27.32 29.12 27.49 29.18 27.64 29.27C27.78 29.36 27.91 29.47 28.01 29.61C28.12 29.75 28.19 29.91 28.23 30.07C28.27 30.24 28.28 30.41 28.25 30.58C28.22 30.75 28.16 30.91 28.07 31.06C27.98 31.21 27.86 31.33 27.72 31.43C27.57 31.53 27.41 31.6 27.25 31.63L20.61 33.23C20.51 33.26 20.41 33.27 20.31 33.27Z" fill="#3F5C6C" fill-opacity="1.000000" fill-rule="nonzero"/>
		<path id="Vector" d="M13.09 41.62C12.78 41.62 12.48 41.51 12.24 41.3C12.01 41.09 11.86 40.8 11.82 40.49C11.78 40.18 11.86 39.87 12.04 39.61C12.22 39.35 12.49 39.17 12.79 39.09L15.29 38.5C15.45 38.45 15.63 38.44 15.8 38.46C15.97 38.48 16.13 38.54 16.28 38.63C16.42 38.72 16.55 38.83 16.65 38.97C16.76 39.11 16.83 39.26 16.87 39.43C16.91 39.6 16.92 39.77 16.89 39.94C16.86 40.11 16.8 40.27 16.71 40.42C16.62 40.56 16.5 40.69 16.36 40.79C16.22 40.88 16.06 40.95 15.89 40.99L13.4 41.59C13.3 41.62 13.19 41.63 13.09 41.62Z" fill="#3F5C6C" fill-opacity="1.000000" fill-rule="nonzero"/>
		<path id="Vector" d="M21.82 39.51C21.51 39.51 21.21 39.39 20.97 39.19C20.74 38.98 20.58 38.69 20.55 38.38C20.51 38.07 20.59 37.75 20.77 37.49C20.95 37.24 21.21 37.05 21.52 36.98L26.64 35.73C26.81 35.69 26.98 35.68 27.15 35.7C27.32 35.73 27.48 35.78 27.63 35.87C27.77 35.96 27.9 36.07 28 36.21C28.11 36.35 28.18 36.51 28.22 36.67C28.26 36.84 28.27 37.01 28.24 37.18C28.21 37.35 28.15 37.51 28.06 37.65C27.97 37.8 27.85 37.92 27.71 38.02C27.57 38.12 27.41 38.19 27.25 38.23L22.13 39.47C22.03 39.5 21.93 39.51 21.82 39.51Z" fill="#3F5C6C" fill-opacity="1.000000" fill-rule="nonzero"/>
		<path id="Vector" d="M65.45 65.44L70.58 65.44C71.94 65.44 73.25 64.9 74.21 63.94C75.17 62.98 75.71 61.67 75.71 60.31L75.71 6.41C75.71 5.05 75.17 3.74 74.21 2.78C73.25 1.82 71.94 1.28 70.58 1.28L32.08 1.28C30.72 1.28 29.41 1.82 28.45 2.78C27.49 3.74 26.95 5.05 26.95 6.41L26.95 60.31C26.95 61.67 27.49 62.98 28.45 63.94C29.41 64.9 30.72 65.44 32.08 65.44L65.45 65.44Z" fill="#F9EAB0" fill-opacity="1.000000" fill-rule="nonzero"/>
		<path id="Vector" d="M65.45 56.49L65.45 74.43C65.45 74.68 65.37 74.93 65.23 75.14C65.09 75.35 64.89 75.52 64.65 75.61C64.42 75.71 64.16 75.74 63.91 75.69C63.66 75.64 63.43 75.51 63.25 75.34L59.94 72.02C59.7 71.78 59.37 71.64 59.03 71.64C58.69 71.64 58.36 71.78 58.12 72.02L54.8 75.34C54.62 75.51 54.39 75.64 54.15 75.69C53.9 75.74 53.64 75.71 53.4 75.61C53.17 75.52 52.97 75.35 52.83 75.14C52.69 74.93 52.61 74.68 52.61 74.43L52.61 56.49L65.45 56.49Z" fill="#C03A2B" fill-opacity="1.000000" fill-rule="nonzero"/>
		<path id="Vector" d="M60.18 36.4L60.4 36.27C60.65 36.11 60.93 36 61.22 35.95C61.52 35.91 61.82 35.92 62.1 36C62.39 36.08 62.66 36.21 62.89 36.4C63.12 36.59 63.31 36.82 63.45 37.08L63.57 37.31C63.76 37.68 64.04 37.98 64.4 38.18C64.75 38.39 65.16 38.49 65.57 38.47L65.82 38.45C66.12 38.44 66.42 38.49 66.69 38.6C66.97 38.7 67.22 38.87 67.43 39.08C67.64 39.29 67.81 39.54 67.91 39.82C68.02 40.09 68.07 40.39 68.06 40.69L68.04 40.95C68.02 41.35 68.12 41.76 68.33 42.11C68.53 42.47 68.84 42.76 69.2 42.94L69.43 43.06C69.69 43.2 69.92 43.39 70.11 43.62C70.3 43.85 70.43 44.12 70.51 44.41C70.59 44.69 70.6 44.99 70.56 45.29C70.51 45.58 70.4 45.86 70.24 46.11L70.11 46.33C69.89 46.67 69.77 47.07 69.77 47.48C69.77 47.89 69.89 48.29 70.11 48.64L70.24 48.85C70.4 49.1 70.51 49.38 70.56 49.68C70.6 49.97 70.59 50.27 70.51 50.56C70.43 50.85 70.3 51.11 70.11 51.35C69.92 51.58 69.69 51.77 69.43 51.9L69.2 52.02C68.84 52.21 68.53 52.5 68.33 52.85C68.12 53.21 68.02 53.61 68.04 54.02L68.06 54.28C68.07 54.57 68.02 54.87 67.91 55.15C67.81 55.42 67.64 55.68 67.43 55.89C67.22 56.1 66.97 56.26 66.69 56.37C66.42 56.48 66.12 56.52 65.82 56.51L65.57 56.5C65.16 56.48 64.75 56.58 64.4 56.78C64.04 56.99 63.76 57.29 63.57 57.65L63.45 57.88C63.31 58.14 63.12 58.38 62.89 58.56C62.66 58.75 62.39 58.89 62.1 58.96C61.82 59.04 61.52 59.06 61.22 59.01C60.93 58.96 60.65 58.86 60.4 58.7L60.18 58.56C59.84 58.34 59.44 58.22 59.03 58.22C58.62 58.22 58.22 58.34 57.87 58.56L57.66 58.7C57.41 58.86 57.13 58.96 56.83 59.01C56.54 59.06 56.24 59.04 55.95 58.96C55.66 58.89 55.4 58.75 55.16 58.56C54.93 58.38 54.74 58.14 54.61 57.88L54.49 57.65C54.3 57.29 54.01 56.99 53.66 56.78C53.31 56.58 52.9 56.48 52.49 56.5L52.23 56.51C51.94 56.52 51.64 56.48 51.36 56.37C51.09 56.26 50.83 56.1 50.62 55.89C50.41 55.68 50.25 55.42 50.14 55.15C50.04 54.87 49.99 54.57 50 54.28L50.01 54.02C50.03 53.61 49.93 53.21 49.73 52.85C49.52 52.5 49.22 52.21 48.86 52.02L48.63 51.9C48.37 51.77 48.13 51.58 47.95 51.35C47.76 51.11 47.62 50.85 47.55 50.56C47.47 50.27 47.45 49.97 47.5 49.68C47.55 49.38 47.65 49.1 47.81 48.85L47.95 48.64C48.17 48.29 48.29 47.89 48.29 47.48C48.29 47.07 48.17 46.67 47.95 46.33L47.81 46.11C47.65 45.86 47.55 45.58 47.5 45.29C47.45 44.99 47.47 44.69 47.55 44.41C47.62 44.12 47.76 43.85 47.95 43.62C48.13 43.39 48.37 43.2 48.63 43.06L48.86 42.94C49.22 42.76 49.52 42.47 49.73 42.11C49.93 41.76 50.03 41.35 50.01 40.95L50 40.69C49.99 40.39 50.04 40.09 50.14 39.82C50.25 39.54 50.41 39.29 50.62 39.08C50.83 38.87 51.09 38.7 51.36 38.6C51.64 38.49 51.94 38.44 52.23 38.45L52.49 38.47C52.9 38.49 53.31 38.39 53.66 38.18C54.01 37.98 54.3 37.68 54.49 37.31L54.61 37.08C54.74 36.82 54.93 36.59 55.16 36.4C55.4 36.21 55.66 36.08 55.95 36C56.24 35.92 56.54 35.91 56.83 35.95C57.13 36 57.41 36.11 57.66 36.27L57.87 36.4C58.22 36.63 58.62 36.74 59.03 36.74C59.44 36.74 59.84 36.63 60.18 36.4Z" fill="#E64C3C" fill-opacity="1.000000" fill-rule="nonzero"/>
		<path id="Vector" d="M35.93 11.55L33.36 11.55C33.02 11.55 32.7 11.41 32.45 11.17C32.21 10.93 32.08 10.6 32.08 10.26C32.08 9.92 32.21 9.59 32.45 9.35C32.7 9.11 33.02 8.98 33.36 8.98L35.93 8.98C36.27 8.98 36.6 9.11 36.84 9.35C37.08 9.59 37.21 9.92 37.21 10.26C37.21 10.6 37.08 10.93 36.84 11.17C36.6 11.41 36.27 11.55 35.93 11.55Z" fill="#3F5C6C" fill-opacity="1.000000" fill-rule="nonzero"/>
		<path id="Vector" d="M69.29 11.54L42.34 11.54C42 11.54 41.68 11.41 41.44 11.17C41.2 10.93 41.06 10.6 41.06 10.26C41.06 9.92 41.2 9.59 41.44 9.35C41.68 9.11 42 8.98 42.34 8.98L69.29 8.98C69.64 8.98 69.96 9.11 70.2 9.35C70.44 9.59 70.58 9.92 70.58 10.26C70.58 10.6 70.44 10.93 70.2 11.17C69.96 11.41 69.64 11.54 69.29 11.54Z" fill="#3F5C6C" fill-opacity="1.000000" fill-rule="nonzero"/>
		<path id="Vector" d="M65.45 47.48C65.45 51.02 62.57 53.9 59.03 53.9C55.48 53.9 52.61 51.02 52.61 47.48C52.61 43.93 55.48 41.06 59.03 41.06C62.57 41.06 65.45 43.93 65.45 47.48Z" fill="#E57E25" fill-opacity="1.000000" fill-rule="evenodd"/>
		<path id="Vector" d="M35.93 17.96L33.36 17.96C33.02 17.96 32.7 17.83 32.45 17.59C32.21 17.35 32.08 17.02 32.08 16.68C32.08 16.34 32.21 16.01 32.45 15.77C32.7 15.53 33.02 15.4 33.36 15.4L35.93 15.4C36.27 15.4 36.6 15.53 36.84 15.77C37.08 16.01 37.21 16.34 37.21 16.68C37.21 17.02 37.08 17.35 36.84 17.59C36.6 17.83 36.27 17.96 35.93 17.96Z" fill="#3F5C6C" fill-opacity="1.000000" fill-rule="nonzero"/>
		<path id="Vector" d="M69.29 17.96L42.34 17.96C42 17.96 41.68 17.83 41.44 17.59C41.2 17.35 41.06 17.02 41.06 16.68C41.06 16.34 41.2 16.01 41.44 15.77C41.68 15.53 42 15.4 42.34 15.4L69.29 15.4C69.64 15.4 69.96 15.53 70.2 15.77C70.44 16.01 70.58 16.34 70.58 16.68C70.58 17.02 70.44 17.35 70.2 17.59C69.96 17.83 69.64 17.96 69.29 17.96Z" fill="#3F5C6C" fill-opacity="1.000000" fill-rule="nonzero"/>
		<path id="Vector" d="M35.93 24.38L33.36 24.38C33.02 24.38 32.7 24.24 32.45 24C32.21 23.76 32.08 23.44 32.08 23.1C32.08 22.75 32.21 22.43 32.45 22.19C32.7 21.95 33.02 21.81 33.36 21.81L35.93 21.81C36.27 21.81 36.6 21.95 36.84 22.19C37.08 22.43 37.21 22.75 37.21 23.1C37.21 23.44 37.08 23.76 36.84 24C36.6 24.24 36.27 24.38 35.93 24.38Z" fill="#3F5C6C" fill-opacity="1.000000" fill-rule="nonzero"/>
		<path id="Vector" d="M69.29 24.38L42.34 24.38C42 24.38 41.68 24.24 41.44 24C41.2 23.76 41.06 23.44 41.06 23.1C41.06 22.75 41.2 22.43 41.44 22.19C41.68 21.95 42 21.81 42.34 21.81L69.29 21.81C69.64 21.81 69.96 21.95 70.2 22.19C70.44 22.43 70.58 22.75 70.58 23.1C70.58 23.44 70.44 23.76 70.2 24C69.96 24.24 69.64 24.38 69.29 24.38Z" fill="#3F5C6C" fill-opacity="1.000000" fill-rule="nonzero"/>
		<path id="Vector" d="M35.93 30.8L33.36 30.8C33.02 30.8 32.7 30.66 32.45 30.42C32.21 30.18 32.08 29.85 32.08 29.51C32.08 29.17 32.21 28.84 32.45 28.6C32.7 28.36 33.02 28.23 33.36 28.23L35.93 28.23C36.27 28.23 36.6 28.36 36.84 28.6C37.08 28.84 37.21 29.17 37.21 29.51C37.21 29.85 37.08 30.18 36.84 30.42C36.6 30.66 36.27 30.8 35.93 30.8Z" fill="#3F5C6C" fill-opacity="1.000000" fill-rule="nonzero"/>
		<path id="Vector" d="M48.76 30.79L42.34 30.79C42 30.79 41.68 30.66 41.44 30.42C41.2 30.18 41.06 29.85 41.06 29.51C41.06 29.17 41.2 28.84 41.44 28.6C41.68 28.36 42 28.23 42.34 28.23L48.76 28.23C49.1 28.23 49.43 28.36 49.67 28.6C49.91 28.84 50.04 29.17 50.04 29.51C50.04 29.85 49.91 30.18 49.67 30.42C49.43 30.66 49.1 30.79 48.76 30.79Z" fill="#3F5C6C" fill-opacity="1.000000" fill-rule="nonzero"/>
	</g>
</svg>
