<svg width="94.000000" height="14.000000" viewBox="0 0 94 14" fill="none" xmlns="http://www.w3.org/2000/svg" xmlns:xlink="http://www.w3.org/1999/xlink">
	<desc>
			Created with Pixso.
	</desc>
	<defs/>
	<path id="Vector" d="M0.76 7.35L2.84 8.92L2.05 11.44C1.93 11.83 1.92 12.26 2.05 12.65C2.17 13.04 2.42 13.38 2.74 13.62C3.07 13.87 3.46 14 3.86 14C4.25 13.99 4.64 13.86 4.96 13.61L6.99 12.07L9.03 13.61C9.35 13.85 9.73 13.98 10.13 13.99C10.53 13.99 10.92 13.86 11.24 13.62C11.57 13.38 11.81 13.04 11.93 12.65C12.06 12.26 12.06 11.83 11.93 11.44L11.15 8.92L13.22 7.35C13.54 7.11 13.78 6.77 13.9 6.38C14.03 5.99 14.03 5.57 13.9 5.18C13.78 4.79 13.54 4.45 13.22 4.21C12.9 3.97 12.51 3.84 12.11 3.84L9.56 3.84L8.79 1.35C8.67 0.95 8.43 0.61 8.1 0.37C7.78 0.13 7.39 0 6.99 0C6.59 0 6.21 0.13 5.88 0.37C5.56 0.61 5.32 0.95 5.2 1.35L4.43 3.84L1.88 3.84C1.48 3.84 1.09 3.97 0.77 4.21C0.45 4.45 0.21 4.79 0.09 5.18C-0.04 5.57 -0.04 5.99 0.09 6.38C0.21 6.77 0.45 7.11 0.77 7.35L0.76 7.35Z" fill="#FFE03D" fill-opacity="1.000000" fill-rule="nonzero"/>
	<path id="Vector" d="M20.76 7.35L22.84 8.92L22.05 11.44C21.93 11.83 21.92 12.26 22.05 12.65C22.17 13.04 22.42 13.38 22.74 13.62C23.07 13.87 23.46 14 23.86 14C24.25 13.99 24.64 13.86 24.96 13.61L26.99 12.07L29.03 13.61C29.35 13.85 29.73 13.98 30.13 13.99C30.53 13.99 30.92 13.86 31.24 13.62C31.57 13.38 31.81 13.04 31.93 12.65C32.06 12.26 32.06 11.83 31.93 11.44L31.15 8.92L33.22 7.35C33.54 7.11 33.78 6.77 33.9 6.38C34.03 5.99 34.03 5.57 33.9 5.18C33.78 4.79 33.54 4.45 33.22 4.21C32.9 3.97 32.51 3.84 32.11 3.84L29.56 3.84L28.79 1.35C28.67 0.95 28.43 0.61 28.1 0.37C27.78 0.13 27.39 0 26.99 0C26.59 0 26.21 0.13 25.88 0.37C25.56 0.61 25.32 0.95 25.2 1.35L24.43 3.84L21.88 3.84C21.48 3.84 21.09 3.97 20.77 4.21C20.45 4.45 20.21 4.79 20.09 5.18C19.96 5.57 19.96 5.99 20.09 6.38C20.21 6.77 20.45 7.11 20.77 7.35L20.76 7.35Z" fill="#FFE03D" fill-opacity="1.000000" fill-rule="nonzero"/>
	<path id="Vector" d="M40.76 7.35L42.84 8.92L42.05 11.44C41.93 11.83 41.92 12.26 42.05 12.65C42.17 13.04 42.42 13.38 42.74 13.62C43.07 13.87 43.46 14 43.86 14C44.25 13.99 44.64 13.86 44.96 13.61L46.99 12.07L49.03 13.61C49.35 13.85 49.73 13.98 50.13 13.99C50.53 13.99 50.92 13.86 51.24 13.62C51.57 13.38 51.81 13.04 51.93 12.65C52.06 12.26 52.06 11.83 51.93 11.44L51.15 8.92L53.22 7.35C53.54 7.11 53.78 6.77 53.9 6.38C54.03 5.99 54.03 5.57 53.9 5.18C53.78 4.79 53.54 4.45 53.22 4.21C52.9 3.97 52.51 3.84 52.11 3.84L49.56 3.84L48.79 1.35C48.67 0.95 48.43 0.61 48.1 0.37C47.78 0.13 47.39 0 46.99 0C46.59 0 46.21 0.13 45.88 0.37C45.56 0.61 45.32 0.95 45.2 1.35L44.43 3.84L41.88 3.84C41.48 3.84 41.09 3.97 40.77 4.21C40.45 4.45 40.21 4.79 40.09 5.18C39.96 5.57 39.96 5.99 40.09 6.38C40.21 6.77 40.45 7.11 40.77 7.35L40.76 7.35Z" fill="#FFE03D" fill-opacity="1.000000" fill-rule="nonzero"/>
	<path id="Vector" d="M60.76 7.35L62.84 8.92L62.05 11.44C61.93 11.83 61.92 12.26 62.05 12.65C62.17 13.04 62.42 13.38 62.74 13.62C63.07 13.87 63.46 14 63.86 14C64.25 13.99 64.64 13.86 64.96 13.61L66.99 12.07L69.03 13.61C69.35 13.85 69.73 13.98 70.13 13.99C70.53 13.99 70.92 13.86 71.24 13.62C71.57 13.38 71.81 13.04 71.93 12.65C72.06 12.26 72.06 11.83 71.93 11.44L71.15 8.92L73.22 7.35C73.54 7.11 73.78 6.77 73.9 6.38C74.03 5.99 74.03 5.57 73.9 5.18C73.78 4.79 73.54 4.45 73.22 4.21C72.9 3.97 72.51 3.84 72.11 3.84L69.56 3.84L68.79 1.35C68.67 0.95 68.43 0.61 68.1 0.37C67.78 0.13 67.39 0 66.99 0C66.59 0 66.21 0.13 65.88 0.37C65.56 0.61 65.32 0.95 65.2 1.35L64.43 3.84L61.88 3.84C61.48 3.84 61.09 3.97 60.77 4.21C60.45 4.45 60.21 4.79 60.09 5.18C59.96 5.57 59.96 5.99 60.09 6.38C60.21 6.77 60.45 7.11 60.77 7.35L60.76 7.35Z" fill="#FFE03D" fill-opacity="1.000000" fill-rule="nonzero"/>
	<path id="Vector" d="M80.76 7.35L82.84 8.92L82.05 11.44C81.93 11.83 81.92 12.26 82.05 12.65C82.17 13.04 82.42 13.38 82.74 13.62C83.07 13.87 83.46 14 83.86 14C84.25 13.99 84.64 13.86 84.96 13.61L86.99 12.07L89.03 13.61C89.35 13.85 89.73 13.98 90.13 13.99C90.53 13.99 90.92 13.86 91.24 13.62C91.57 13.38 91.81 13.04 91.93 12.65C92.06 12.26 92.06 11.83 91.93 11.44L91.15 8.92L93.22 7.35C93.54 7.11 93.78 6.77 93.9 6.38C94.03 5.99 94.03 5.57 93.9 5.18C93.78 4.79 93.54 4.45 93.22 4.21C92.9 3.97 92.51 3.84 92.11 3.84L89.56 3.84L88.79 1.35C88.67 0.95 88.43 0.61 88.1 0.37C87.78 0.13 87.39 0 86.99 0C86.59 0 86.21 0.13 85.88 0.37C85.56 0.61 85.32 0.95 85.2 1.35L84.43 3.84L81.88 3.84C81.48 3.84 81.09 3.97 80.77 4.21C80.45 4.45 80.21 4.79 80.09 5.18C79.96 5.57 79.96 5.99 80.09 6.38C80.21 6.77 80.45 7.11 80.77 7.35L80.76 7.35Z" fill="#FFE03D" fill-opacity="1.000000" fill-rule="nonzero"/>
</svg>
