<svg width="132.725586" height="127.583740" viewBox="0 0 132.726 127.584" fill="none" xmlns="http://www.w3.org/2000/svg" xmlns:xlink="http://www.w3.org/1999/xlink">
	<desc>
			Created with Pixso.
	</desc>
	<defs/>
	<path id="Vector" d="M109.66 1.31C80.79 -0.44 51.92 -0.44 23.06 1.31C11.48 2.01 2.22 11.14 1.26 22.7C-0.43 43.03 -0.43 63.36 1.26 83.69C2.22 95.27 11.51 104.39 23.11 105.09C27.71 105.37 32.32 105.6 36.92 105.79C39.5 105.9 41.94 106.98 43.77 108.8L59.84 124.88C63.44 128.48 69.27 128.48 72.87 124.88L88.95 108.8C90.78 106.98 93.22 105.9 95.79 105.79C100.4 105.6 105 105.37 109.61 105.09C121.21 104.39 130.5 95.27 131.46 83.69C133.14 63.36 133.14 43.03 131.46 22.7C130.5 11.14 121.24 2.01 109.66 1.31Z" fill="#9DC6FB" fill-opacity="1.000000" fill-rule="nonzero"/>
	<path id="Vector" d="M67.71 127.48C64.93 127.89 61.99 127.03 59.84 124.88L43.76 108.8C41.94 106.98 39.5 105.9 36.92 105.79C32.32 105.61 27.72 105.37 23.11 105.09C11.51 104.39 2.22 95.28 1.26 83.7C-0.43 63.37 -0.43 43.03 1.26 22.7C2.18 11.66 10.67 2.84 21.52 1.45C13.97 4.83 8.45 13.41 7.75 22.7C6.24 43.03 6.24 63.37 7.75 83.7C8.62 95.28 16.98 104.39 27.42 105.09C31.57 105.37 39.72 105.61 43.86 105.79C46.18 105.9 48.38 106.98 50.02 108.8L64.5 124.88C65.81 126.33 66.79 127.2 67.71 127.48Z" fill="#80B4FB" fill-opacity="1.000000" fill-rule="nonzero"/>
	<path id="Vector" d="M74.03 53.46L104.97 71.32C108.99 73.64 114.01 70.74 114.01 66.1L114.01 40.81C114.01 36.17 108.99 33.27 104.97 35.59L74.03 53.46Z" fill="#21386B" fill-opacity="1.000000" fill-rule="nonzero"/>
	<path id="Vector" d="M83.1 79.13C68.15 80.03 53.2 80.03 38.26 79.13C32.62 78.79 28.09 74.37 27.61 68.74C26.73 58.55 26.73 48.36 27.61 38.18C28.09 32.55 32.62 28.12 38.26 27.78C53.2 26.88 68.15 26.88 83.1 27.78C88.73 28.12 93.26 32.55 93.75 38.18C94.62 48.36 94.62 58.55 93.75 68.74C93.26 74.37 88.73 78.79 83.1 79.13Z" fill="#26457D" fill-opacity="1.000000" fill-rule="nonzero"/>
	<path id="Vector" d="M93.75 68.75C93.26 74.37 88.73 78.79 83.1 79.13C68.15 80.03 53.2 80.03 38.26 79.13C32.62 78.79 28.1 74.37 27.61 68.75C29.64 69.67 32.16 70.24 34.9 70.34C52.08 70.93 69.27 70.93 86.45 70.34C89.2 70.24 91.72 69.67 93.75 68.75Z" fill="#21386B" fill-opacity="1.000000" fill-rule="nonzero"/>
	<path id="Vector" d="M71.76 49.58L59.83 42.69C56.84 40.97 53.11 43.12 53.11 46.57L53.11 60.35C53.11 63.8 56.84 65.95 59.83 64.23L71.76 57.34C74.75 55.61 74.75 51.3 71.76 49.58Z" fill="#EE596B" fill-opacity="1.000000" fill-rule="nonzero"/>
</svg>
