<svg width="27.168457" height="27.168457" viewBox="0 0 27.1685 27.1685" fill="none" xmlns="http://www.w3.org/2000/svg" xmlns:xlink="http://www.w3.org/1999/xlink">
	<desc>
			Created with Pixso.
	</desc>
	<defs/>
	<mask id="mask61_228" mask-type="alpha" maskUnits="userSpaceOnUse" x="0.000000" y="0.000000" width="27.168457" height="27.168457">
		<path id="svgIDa" d="M0 0L27.16 0L27.16 27.16L0 27.16L0 0Z" fill="#000000" fill-opacity="1.000000" fill-rule="nonzero"/>
	</mask>
	<g mask="url(#mask61_228)">
		<path id="Vector" d="M26.6 7.36C26.44 6.81 26.14 6.32 25.73 5.92C25.31 5.52 24.78 5.23 24.22 5.08C22.09 4.52 13.57 4.52 13.57 4.52C10.02 4.48 6.47 4.66 2.94 5.06C2.38 5.21 1.85 5.51 1.43 5.92C1.01 6.32 0.71 6.82 0.55 7.36C0.17 9.41 -0.02 11.49 0 13.58C-0.02 15.66 0.17 17.75 0.55 19.8C0.7 20.34 1.01 20.84 1.43 21.24C1.85 21.64 2.37 21.92 2.94 22.08C5.1 22.64 13.57 22.64 13.57 22.64C17.13 22.68 20.68 22.5 24.22 22.1C24.78 21.96 25.31 21.67 25.73 21.26C26.14 20.87 26.44 20.38 26.6 19.83C26.99 17.78 27.18 15.69 27.16 13.61C27.19 11.51 27 9.42 26.6 7.36L26.6 7.36ZM10.87 17.46L10.87 9.71L17.95 13.58L10.87 17.46Z" fill="#FFFFF5" fill-opacity="1.000000" fill-rule="nonzero"/>
	</g>
</svg>
